# xmcd
#
# Track frame offsets: 
#        150
#        19083
#        42383
#        71853
#        91225
#        108458
#        132073
#        153140
#        172928
#        195463
#        218698
#        233945
#        247408
#        269175
#
# Disc length: 3876 seconds
#
# Revision: 0
# Processed by: cddbd v1.5.2PL0 Copyright (c) Steve Scherf et al.
# Submitted via: ExactAudioCopyFreeDBPlugin 1.0
#
DISCID=c70f220e
DTITLE=谷村新司★チョー・ヨンピル - 谷村新司★チョー・ヨンピル
DYEAR=1996
DGENRE=JPop
TTITLE0=三都物語
TTITLE1=君を忘れない
TTITLE2=群青
TTITLE3=夜顔
TTITLE4=夏の二週間
TTITLE5=階ーきざはしー
TTITLE6=昴ーすばるー
TTITLE7=悲しみのゆくえ
TTITLE8=想いで迷子
TTITLE9=夕顔恋唄
TTITLE10=窓の外の女
TTITLE11=釜山港へ帰れ
TTITLE12=想いで迷子ー2
TTITLE13=花
EXTD=
EXTT0=
EXTT1=
EXTT2=
EXTT3=
EXTT4=
EXTT5=
EXTT6=
EXTT7=
EXTT8=
EXTT9=
EXTT10=
EXTT11=
EXTT12=
EXTT13=
PLAYORDER=
